<?xml version="1.0" encoding="UTF-8"?>
<svg id="Layer_1" xmlns="http://www.w3.org/2000/svg" viewBox="0 0 792 627.8">
  <polygon points="211.25 553.54 206.42 553.54 208.78 563.06 211.25 553.54" style="fill: none;"/>
  <path d="M542.64,397.11v-12.14c-2.84,3.96-6.01,7.99-9.52,12.14h9.52Z" style="fill: none;"/>
  <rect x="354.71" y="556.89" width="15.23" height="20.66" style="fill: none;"/>
  <rect x="314.65" y="553.54" width="14.12" height="6.38" style="fill: none;"/>
  <rect x="165.28" y="556.89" width="15.23" height="20.66" style="fill: none;"/>
  <path d="M543.1,313.37c-8.29-50.17-26.89-55.98-40.16-55.98-.41,0-.83,0-1.25.02.85,2.61,1.55,6.66-.53,10.24-2.54,4.37-8.34,6.59-17.23,6.59h0c-2.04,0-4.29-.12-6.69-.35l-59.56,39.94c-.38,2.84-1.51,5.29-2.72,7.08,2.9,1.79,4.67,4.02,5.28,6.67.64,2.77-.18,5.32-1.03,7.04,4.57,2.6,5.29,7.98,5.33,8.24.82,5.59-3.61,10.37-6.42,12.79,2.3,2.69,3.03,7.23,3.18,8.35.01.09.02.17.02.26v51.4l10.15,11.78v-26.65h13.74v-8.88h4.94v-4.33h2.79v-3.68h2.79v-17.02l11.38-12.35v-11.58h18.46v11.08l9.38,6.25h10.57l19.99,14.86c1.31-1.73,2.62-3.57,3.92-5.53,8.39-12.68,17.58-32.73,13.69-56.23Z" style="fill: none;"/>
  <polygon points="55.58 568.77 59.52 568.77 57.59 563.17 55.58 568.77" style="fill: none;"/>
  <polygon points="270.82 553.54 260.63 553.54 270.82 566.59 270.82 553.54" style="fill: none;"/>
  <polygon points="103.6 573.71 90 573.71 90 575.47 90 577.55 103.6 577.55 103.6 573.71" style="fill: none;"/>
  <polygon points="91.05 560 103.23 560 103.23 558.65 103.23 556.73 91.05 556.73 91.05 560" style="fill: none;"/>
  <polygon points="706.79 553.54 696.6 553.54 706.79 566.59 706.79 553.54" style="fill: none;"/>
  <rect x="520.04" y="553.54" width="14.12" height="6.38" style="fill: none;"/>
  <rect x="654.42" y="553.54" width="12.39" height="24.01" style="fill: none;"/>
  <polygon points="437.41 553.54 434.89 553.54 434.89 556.44 437.41 553.54" style="fill: none;"/>
  <polygon points="475.22 553.54 453.78 553.54 442.12 566.21 460.55 586.26 462.38 588.24 462.77 587.19 475.22 553.54" style="fill: none;"/>
  <path d="M707.3,611.29h-5.76v8.93h4.19c1.98,0,3.43-.26,4.32-.76,1.23-.69,1.84-1.95,1.84-3.77,0-2.93-1.53-4.4-4.6-4.4Z" style="fill: none;"/>
  <polygon points="650.53 617.24 656.65 617.24 653.64 611.51 650.53 617.24" style="fill: none;"/>
  <rect x="395.01" y="556.89" width="15.23" height="20.66" style="fill: none;"/>
  <path d="M637.79,614.95c.27-.14.41-.45.41-.93v-1.69c0-.47-.14-.78-.41-.93-.2-.12-.55-.19-1.05-.19h-7.3v3.93h7.3c.5,0,.85-.06,1.05-.19Z" style="fill: none;"/>
  <path d="M601.88,611.29h-5.76v8.93h4.19c1.98,0,3.43-.26,4.32-.76,1.23-.69,1.84-1.95,1.84-3.77,0-2.93-1.53-4.4-4.6-4.4Z" style="fill: none;"/>
  <path d="M679.36,611.4c-.2-.12-.55-.19-1.06-.19h-7.3v3.74h7.3c.51,0,.86-.06,1.06-.19.27-.15.4-.45.4-.93v-1.5c0-.47-.13-.78-.4-.93Z" style="fill: none;"/>
  <rect x="614.12" y="556.89" width="15.23" height="20.66" style="fill: none;"/>
  <path d="M539.35,614.95c.27-.14.4-.45.4-.93v-1.69c0-.47-.13-.78-.4-.93-.2-.12-.55-.19-1.05-.19h-7.3v3.93h7.3c.5,0,.85-.06,1.05-.19Z" style="fill: none;"/>
  <polygon points="552.09 617.24 558.2 617.24 555.2 611.51 552.09 617.24" style="fill: none;"/>
  <polygon points="481.55 568.77 485.49 568.77 483.55 563.17 481.55 568.77" style="fill: none;"/>
  <polygon points="731.18 577.55 745.3 577.55 745.3 573.96 737.79 573.96 734.98 573.96 734.98 571.12 734.98 564.04 734.98 561.21 737.79 561.21 745.3 561.21 745.3 558.73 745.3 556.89 731.18 556.89 731.18 577.55" style="fill: none;"/>
  <path d="M403.78,5.15c3.93-1.74,4.89,2.52,4.89,2.52-.32,10.31,3.94,13.33,8.12,16.72V2.17h-16.92s.02.02.03.04c2.16,3.24,3.88,2.95,3.88,2.95Z" style="fill: none;"/>
  <path d="M386.27,19.99s-.34-1.41-1.42-2.57v15.43h1.66c.71-6.77-.24-12.86-.24-12.86Z" style="fill: none;"/>
  <path d="M395.03,8.9s1.79.45-.83-4.71c-.4-.79-.6-1.46-.63-2.02h-8.72v8.92c.78-.88,1.42-1.8,1.42-1.8,2.88-6.52,8.76-.39,8.76-.39Z" style="fill: none;"/>
  <g>
    <path d="M464.66,608.57l-.29-.17s-1.83-.99-3.6-.99c-.91,0-1.6.25-2.11.77l-.38.39h-8.52l-.34-.25s-1.31-.94-2.71-.94c-.74,0-1.36.27-1.9.81l-.37.39h-6.53l-.18-.06s-2.87-.88-5.87-.88c-1.68,0-3.07.27-4.12.8l-.27.14h-2.46l-.22-.08s-2.56-.93-5.52-.93c-1.69,0-3.19.3-4.44.89l-.26.13-6.96-.02s-3.72-.7-6.65-.7c-2.18,0-2.69.38-2.75.42l-.36.3h-9.11l-.25-.12s-3.03-1.33-6.27-1.33c-1.82,0-3.35.41-4.56,1.22l-.32.22h-15.86l-.37-.34c-.05-.05-5.18-4.65-11.49-4.65-3.66,0-7.05,1.55-10.08,4.6l-.38.39h-55.43s-1.26.04-3.42.04c-6.21,0-18.36-.38-29.88-2.91-13.36-2.93-21.84-7.87-25.31-14.68h-2.08l-.55-2.12-4.78-18.37-4.85,18.38-.35,1.32c.29,1.15.67,2.29,1.13,3.41,7.35,17.76,35.03,26.77,82.26,26.77h.01c5.45,0,11.25-.12,17.22-.37h25.33s.53,0,.53,0l.37.37s4.93,4.78,11.17,4.78c3.63,0,7.07-1.61,10.2-4.77l.38-.38h17.18l.32.22s2.57,1.68,5.27,1.68c1.5,0,2.72-.5,3.73-1.52l.38-.38h9.55l.37.32s2.28,1.98,4.98,1.98c1.53,0,2.94-.64,4.21-1.92l.38-.38h7.61l.36.31s1.71,1.41,3.67,1.41c1.1,0,2.07-.44,2.96-1.34l.38-.38h6.71l.32.21s1.88,1.21,3.84,1.21c1.05,0,1.89-.34,2.6-1.05l.38-.38h8.15l.32.2s1.38.87,2.78.87c.7,0,1.28-.23,1.74-.69l.38-.38h6.62l.26.13s2.44,1.16,4.73,1.16c1.17,0,2.06-.31,2.66-.91l.38-.38h18.7c1.08-1.68,4-7.09.12-11.48h-18.45Z"/>
    <polygon points="229.78 553.54 225.07 553.54 227.56 562.94 229.78 553.54"/>
    <path d="M787.99,543.82v-160.45l-37.14,21.59v41.77h-8.16v-14.08h-11.16v-26h-32.41v12.13h-27.05v18.85h-6.01v-13h-23.18v11.27h-7.08v-13.44h-18.25v-15.6h-18.46v14.51h-24.26v-57.63h-8.8v-8.23h-7.71c-2.67,7.85-6.55,15.7-11.82,23.82v21.68h-12.88v11.48h-7.09v-7.94s-.02.02-.03.03v-5.78s.02-.02.03-.03c.66-.74,1.3-1.47,1.93-2.2.66-.75,1.3-1.51,1.93-2.25,4.71-5.56,8.77-10.93,12.23-16.16.67-1,1.31-2.01,1.93-3.01.67-1.08,1.31-2.14,1.93-3.21,3.23-5.56,5.78-11,7.72-16.42.23-.65.46-1.3.67-1.95.22-.65.42-1.3.62-1.95.46-1.51.88-3.02,1.24-4.53,4.52-18.61,2.5-38.72-6.72-67.23-9.88-30.55-29.54-36.96-44.29-36.96-9.38,0-16.45,2.63-16.51,2.66l-1.03.39-.86-.69c-3.19-2.58-6.14-3.89-8.77-3.89-9.05,0-12.79,15.65-12.83,15.81l-.18.76-55.4,36.67-.63.42h0c-.34.22-.66.45-.96.69-.32.26-.62.52-.9.79-.2.19-.38.38-.55.56-.79.84-1.27,1.54-1.28,1.56h0c-.45.91-.65,1.12-.79,1.26-.53.54-1.33.71-2.03.45-.71-.26-1.2-.92-1.26-1.67l-1.04-13.14c-.05-.66.23-1.3.75-1.7,2.95-2.29,7.1-6.58,7.1-8.95,0-3.51-2.17-6.02-3.67-6.42-.85-.22-1.44-1-1.44-1.88v-3.02c0-.78.46-1.49,1.17-1.8.06-.03,6.44-2.85,6.44-7.4,0-4.93-3.64-7.3-5.03-7.37-1.03-.05-1.84-.91-1.84-1.95v-8.57c0-.49.19-.97.53-1.33.12-.12,11.83-12.88,11.83-28.13,0-.97.71-1.8,1.66-1.93,11.26-1.61,28.55-6.46,31.47-13.12h-44.83v-32.06l.64-.58c.11-.1,10.45-9.66,11.58-20.81h-38.44c1.13,11.15,11.47,20.72,11.58,20.81l.64.58v.87s0,27.3,0,27.3v3.9h-44.73c2.92,6.66,20.21,11.51,31.47,13.12l1.66.24v1.69c0,15.29,11.71,28,11.83,28.13l.53.56v11.19l-1.84.09c-1.38.07-5.03,2.44-5.03,7.37,0,4.55,6.38,7.37,6.44,7.4l1.17.51v5.81s-1.44.38-1.44.38c-1.5.4-3.67,2.92-3.67,6.42,0,2.37,4.16,6.66,7.1,8.95l.83.65-1.19,15.06c-.65-.07-1.53.07-2.19.21-.04,0-.08.02-.12.02-.45.1-.78.18-.82.2,0,0-.01,0-.01,0h0c-.49.2-.94.45-.94.45l-2.56-4.12v-.04s-.75-1.25-.75-1.25l-10.51-17.93c-.72-.47-2.17-1.24-3.47-1.24-.86,0-1.48.32-2.02,1.05-2.09,2.8-1.16,5.65-.93,6.27l14.65,21.18-.63,1.08c-4.83,8.25,1.26,14.49,1.52,14.75l1.99,1.99-2.55,1.17c-3.04,1.4-4.83,3.13-5.3,5.14-.7,2.96,1.57,5.85,1.59,5.87l1.84,2.32-2.83.79c-4.14,1.14-4.8,5.73-4.83,5.93-.8,5.45,6.8,10.66,6.88,10.71l3.52,2.33-4.05,1.17c-1.45.42-2.71,4.19-3.09,6.82v52.72l-14.46,16.78h0l-.52.52-.88.87-1.04,1.03h-.02s-1.93,1.93-1.93,1.93v-95.53h-89.94v76.7h-19.32v-38.78h-69.33v84.06h-25.33v-32.72h-27.47v19.07h-12.02v-89.91h-59.03v73.44H3.86v109.23h29.74v5.82h17.09l1.47-3.97.68-1.85h9.99l.69,1.83,1.49,3.99h15.65c.31-1.06.72-1.93,1.23-2.64,1.52-2.11,4.06-3.18,7.56-3.18h15.42c3.56,0,6.12,1.1,7.62,3.27.48.69.86,1.53,1.16,2.55h1.87v-5.82h36.93v5.82h1.65c.31-1.06.72-1.93,1.23-2.64,1.52-2.11,4.06-3.18,7.56-3.18h20c3.49,0,6.04,1.07,7.56,3.18.51.71.92,1.58,1.23,2.64h1.47l-.58-2.29-.89-3.53h12.33l.53,2.15.91,3.67h6.8l.96-3.7.55-2.12h8.74l.56,2.11.36,1.36.43,1.63.19.72h6.66l.86-3.64.51-2.18h11.46l-.89,3.53-.58,2.29h2.48v-5.82h8.49l.45.58.39.5,3.7,4.74h13.24v-5.82h11.3v5.82h20.61v-5.82h11.93v5.82h14.12v-5.82h11.98v5.82h2.78c.31-1.06.72-1.93,1.23-2.64,1.52-2.11,4.06-3.18,7.56-3.18h20c3.5,0,6.04,1.07,7.56,3.18.51.71.92,1.58,1.23,2.64h2.72c.31-1.06.72-1.93,1.23-2.64,1.52-2.11,4.06-3.18,7.56-3.18h20c3.5,0,6.04,1.07,7.56,3.18.51.71.92,1.58,1.23,2.64h1.49v-5.82h11.98v5.82h5.92l4.22-4.85.84-.97h16.87l-4.38,4.76-.97,1.06h19.29l1.47-3.97.68-1.85h9.99l.69,1.83,1.49,3.99h17.12v-5.82h11.93v5.82h14.12v-5.82h11.98v5.82h21.95v-5.82h11.93v5.82h22.93c.31-1.06.72-1.93,1.23-2.64,1.52-2.11,4.06-3.18,7.56-3.18h20c3.5,0,6.04,1.07,7.56,3.18.51.71.92,1.58,1.23,2.64h1.96v-5.82h11.93v5.82h12.39v-5.82h11.93v5.82h1.79v-5.82h8.48l.85,1.08,3.7,4.74h13.24v-5.82h11.3v5.82h1.91c.31-1.06.72-1.93,1.23-2.64,1.52-2.11,4.06-3.18,7.56-3.18h18.74c3.71,0,6.32,1.16,7.76,3.45.41.65.74,1.43,1.01,2.37h2.04v-5.82h29.65ZM481.68,356.13v-9.28h-10.73v9.22l-11.38,12.35v19.38h-2.79v3.68h-2.8v4.33h-4.94v8.88h-13.73v32.69l-1.56-1.59-.37-.38-.11-.11-1.38-1.41h0s0,0,0,0h0l-.43-.51-13.54-15.71c-.31-.36-.48-.81-.48-1.28v-52c-.38-2.63-1.64-6.4-3.09-6.82-.73-.21-1.26-.83-1.38-1.58-.12-.75.22-1.51.85-1.92,2.14-1.43,7.55-6.13,6.89-10.68-.03-.23-.7-4.82-4.83-5.96-.63-.17-1.13-.66-1.34-1.29-.2-.63-.07-1.32.35-1.83.02-.02,2.28-2.91,1.58-5.87-.47-2.01-2.25-3.74-5.3-5.14-.58-.27-.99-.8-1.1-1.43-.11-.63.09-1.28.54-1.73.14-.14,1.95-2.03,2.86-5.02h0s.03-.08.03-.08l.87-2.11.9-2.18h.01s.57-.37.57-.37l1.77-1.19,58.65-39.33.69.07c2.52.26,4.87.4,6.98.4h0c7.32,0,12.13-1.61,13.89-4.66,2.19-3.77-.62-9.05-.65-9.1l-1.46-2.63,2.97-.27c1.45-.13,2.89-.2,4.26-.2,23.32,0,37.3,18.82,43.97,59.23,2.26,13.69,1.6,35.07-14.36,59.14-1.31,1.98-2.64,3.83-3.95,5.58-.39.53-.79,1.04-1.18,1.54-.37.48-.75.96-1.12,1.42l-1.6-1.1-1.39-.95-.17-.12-.1.03s.04-.05.06-.07l-18.86-14.02h-10.47l-12.08-8.05Z"/>
    <path d="M389.26,13.91c3.64-2.56,4.89.49,4.89.49,0,0-1.93,6.58,2.44,1.45,0,0,1.35-4.31,2.07.38,0,0,2.11,1.65,2.16-2.18.05-3.82,1.29-2.79,1.29-2.79,0,0,1.15.66,1.34,4.96,0,0,.29,1.45.86,2.03.58.58,1.68,1.55,2.06,3.19.38,1.64,3.07,4.4,3.07,4.4l.53.78s3.74.82,4.46,4.98c0,0,.94,1.2,1.63,1.23h0c.54,0,.93-.71.62-3.26,0,0-2.06-3.58-5.61-4.79,0,0-2.81-2.94-2.75-4.42,0,0-2.56-5.35-2.49-10.13.06-4.77-2.81-1.35-2.81-1.35,0,0-2.88-.64-3.71-2.77,0,0-3.39-8.13-3.84-1.1,0,0,1.34.07,1.67,3.55.32,3.48-1.67,3.93-1.67,3.93,0,0-3.15-5.42-6.74-3.44,0,0,.19,2.18,2.45,2.81,0,0-3.65.77-4.41.1-.77-.68-1.92,2.13-1.92,2.13,0,0,.77,2.37,4.41-.2Z"/>
    <path d="M415.72,37.38s-1.72-2.98-4.47-4.53c-1.33-.75-2.9-1.17-4.64-.74,0,0,.12.29.27.74.51,1.54,1.43,5.13-.27,7,0,0,7.48.68,9.11-2.47Z"/>
    <path d="M404.16,33.7c-.25-.29-.4-.58-.47-.85-.47-1.79,2.25-3.31,2.25-3.31,0,0,2.35-2.23-1.87-4.16,0,0-1.25-7.74-6.71-4.84-5.47,2.9.77,9.34.77,9.34l.14,2.05s-.32.36-.73.91c-.92,1.24-2.26,3.41-1.27,4.48,1.42,1.55-1.79,2.18-1.79,2.18,0,0-2.64,1.79-1.82,4.4,0,0-5.7,3.77-3.36,6.72l2.01,2.61s.72,3-1.49,4.45c-2.21,1.45-5.18,9.48-3.88,11.66,0,0,3.26-8.57,12.27-15.72,0,0-3.55-5.57,2.83-6.53,0,0,.96-1.89.43-5.81,0,0,4.56-5.47,2.69-7.59Z"/>
    <path d="M380.96,51.51c1.78,1.11,3.21-2.18,3.21-2.18,0,0,.57-1.45.96-1.36.38.1,2.19-3.35,2.19-3.35,0,0,2.75-2.41,2.3-3.83-.44-1.42,3.36-4.32,3.36-4.32,0,0-.7-2.29-.21-3.63.17-.46.48-.81,1.01-.92,2.08-.39-2.11-4.45-2.24-4.45s.22-11.74-3.58-8.49c0,0,1.25,6.58.86,9-.18,1.16-.09,3.12.05,4.86.16,1.89.38,3.52.38,3.52,0,0-1.15,1.57-.86,3.54.29,1.97-1.58,2.02-1.58,2.02,0,0-1.44,1.36-1.18,2.03.27.68-.79,1.79-.79,1.79,0,0-1.39.19-1.39,1.6s-1.87,1.02-1.87,1.02c0,0-2.4,2.03-.63,3.15Z"/>
    <path d="M405.99,45.7s6.23-1.55.91-3.29c-5.32-1.74-2.68,2.42-2.68,2.42,0,0,.57.92,1.77.87Z"/>
    <path d="M404.4,50.73c1.1.74-1.32,2.93-1.32,2.93l-4.8,3.94s-10.85,10.88-8.45,12.53c2.4,1.65.19,6.82.19,6.82l-.14,13.21c.86,1.74-.33,5.9-.33,5.9-.67-1.89-3.91-2.81-3.91-2.81,0,0,.56-6.72-.55-5.37-1.1,1.36-3.93-.63-3.93-.63-2.59-2.66,1.15-4.55,1.15-4.55-4.84.44-4.32-1.45-4.32-1.45-.72-1.89,2.59-4.01,2.59-4.01-1.1-1.65-2.97-.29-2.97-.29-2.54-1.79.53-5.32.53-5.32,0,0,4.74-.92,2.18-1.16-2.57-.24-1.12-1.55-1.12-1.55-.43-.87,2.93-4.99,2.93-4.99-.48-1.06,3.02-5.37,3.02-5.37-.48-.78.24-2.28.24-2.28,2.54-3.1-.48-4.26-2.25-3.68-1.77.58-5.37,6.29-3.79,7.26,1.58.96-.57,4.16-.57,4.16,0,0-2.4,3.92-2.11,5.08.29,1.16-1.71,3.68-1.71,3.68,0,0,1.11,3.17.37,5.95-.74,2.78-.14,3.17-.14,3.17,0,0,2.28.53,2.01,3.07-.26,2.54,2.64,3.39,2.64,3.39,1.72,1.03,8.5,13.54,8.5,13.54l6.64,14.58c3.64,3.91,2.18,11.29,2.18,11.29.19,1.86-.36,4.5-.79,6.83.82.01,1.63.02,2.45.01,1.01-4.29,1.74-9.77,1.74-9.77-.16-1.29-.26-2.31-.34-3.15-.37-4.18.16-3.82.34-9.3.21-6.58-2.88-9.95-2.88-9.95-3.53,3.77-2.32-1.6-3.71-1.94-1.39-.34-1.44-2.27-1.44-2.27l-.29-6.72c-1.01-5.71.86-14.08.86-14.08,0,0-.96-3.58,0-8.37.96-4.79,4.57-7.59,4.57-7.59,0,0,7.32-4.31,10.63-10.02,3.31-5.71-3.88-.72-3.88-.72Z"/>
    <path d="M386.14,83.67c.7-1.16,2.11-12.06,0-12.13-2.11-.07-2.49,2.32-2.49,2.32,3.4,1.36.45,6.13.45,6.13,1.86-.71,2.05,3.68,2.05,3.68Z"/>
    <path d="M395.34,93.41c-2.64,1.26.67,8.56.67,8.56,0,0,1.25-2.27,1.39-5.62.14-3.33-2.06-2.95-2.06-2.95Z"/>
    <polygon points="9.32 570.08 21.85 570.08 21.85 562.99 9.32 562.99 9.32 553.74 30.8 553.74 30.8 553.54 30.8 551.59 30.8 549.64 30.8 546.65 3.86 546.65 3 546.65 3 551.59 3 553.54 3 588.19 31.06 588.19 31.06 580.38 9.32 580.38 9.32 570.08"/>
    <path d="M62.75,551.59l-.73-1.95-1.12-2.98h-6.1l-1.1,2.98-.72,1.95-.72,1.95-12.82,34.65h6.31l3.16-9.09h17.21l3.26,9.09h7.11l-13-34.65-.73-1.95ZM51.58,571.6l6.05-16.9,5.84,16.9h-11.89Z"/>
    <path d="M105.19,562.83h-16.95v-8.93h17.79v4.75l5.58-2.01c0-1.14-.04-2.17-.13-3.1-.06-.71-.15-1.37-.26-1.95-.14-.76-.33-1.4-.56-1.95-.15-.35-.3-.67-.48-.93-.95-1.37-2.72-2.05-5.32-2.05h-15.42c-2.56,0-4.32.67-5.29,2.01-.19.27-.36.6-.52.97-.23.54-.42,1.19-.56,1.95-.11.58-.19,1.24-.25,1.95-.08.88-.12,1.86-.12,2.93v4.59c0,3.86.48,6.47,1.45,7.81.97,1.34,2.73,2.01,5.29,2.01h16.95v9.5h-19.21v-4.91l-5.58,1.77c0,4.3.44,7.19,1.31,8.69.88,1.5,2.7,2.25,5.47,2.25h16.79c2.56,0,4.33-.67,5.32-2.01.98-1.34,1.47-3.95,1.47-7.81v-5.72c0-3.86-.49-6.47-1.47-7.81-.98-1.34-2.75-2.01-5.32-2.01Z"/>
    <polygon points="118.33 549.64 118.33 551.59 118.33 553.54 118.33 554.06 130.81 554.06 130.81 588.19 137.12 588.19 137.12 554.06 149.65 554.06 149.65 553.54 149.65 551.59 149.65 549.64 149.65 546.65 118.33 546.65 118.33 549.64"/>
    <path d="M189.26,551.59c-.14-.76-.33-1.4-.56-1.95-.15-.37-.32-.7-.52-.97-.97-1.34-2.73-2.01-5.29-2.01h-20c-2.56,0-4.32.67-5.29,2.01-.19.27-.36.6-.52.97-.23.54-.42,1.19-.56,1.95-.11.58-.19,1.24-.25,1.95-.08.88-.12,1.86-.12,2.93v21.9c0,3.86.48,6.46,1.45,7.81.96,1.34,2.73,2.01,5.29,2.01h20c2.56,0,4.32-.67,5.29-2.01.97-1.34,1.45-3.95,1.45-7.81v-21.9c0-1.08-.04-2.05-.12-2.93-.06-.71-.14-1.37-.25-1.95ZM183.32,580.38h-20.84v-26.32h20.84v26.32Z"/>
    <polygon points="217.72 559.45 218.1 560.91 223.45 581.48 225.19 588.19 225.31 588.19 226.68 588.19 229.45 588.19 236.09 561.86 236.79 559.08 237.46 556.42 238.19 553.54 238.68 551.59 239.18 549.64 239.93 546.65 234.29 546.65 233.59 549.64 233.13 551.59 232.67 553.54 229.63 566.4 228.71 570.28 227.72 574.5 227.31 572.97 226.83 571.15 222.22 553.74 222.17 553.54 221.76 552.01 221.65 551.59 221.32 550.34 221.14 549.64 220.35 546.65 215.93 546.65 215.16 549.64 214.65 551.59 214.15 553.54 208.72 574.5 203.53 553.54 203.04 551.59 202.56 549.64 201.82 546.65 195.3 546.65 196.05 549.64 196.54 551.59 197.03 553.54 205.77 588.19 209.48 588.19 210.14 588.19 210.55 586.62 211.71 582.22 216.42 564.35 217.72 559.45"/>
    <path d="M257.05,553.54l-1.52-1.95-1.52-1.95-2.33-2.98h-4.32v41.53h5.69v-22.7c0-1.56-.09-3.67-.26-6.35.66,1.18,1.42,2.31,2.26,3.38l19.95,25.68h4.32v-41.53h-5.68v21.81c0,.91.09,3.3.26,7.16-.7-1.24-1.74-2.74-3.1-4.51l-13.73-17.59Z"/>
    <polygon points="311.85 551.59 311.85 549.64 311.85 546.65 305.53 546.65 305.53 549.64 305.53 551.59 305.53 553.54 305.53 588.19 311.85 588.19 311.85 570.32 331.58 570.32 331.58 588.19 337.95 588.19 337.95 553.54 337.95 551.59 337.95 549.64 337.95 546.65 331.58 546.65 331.58 549.64 331.58 551.59 331.58 553.54 331.58 562.75 311.85 562.75 311.85 553.54 311.85 551.59"/>
    <path d="M352.33,588.19h20c2.56,0,4.33-.67,5.29-2.01.96-1.34,1.45-3.95,1.45-7.81v-21.9c0-1.08-.04-2.05-.12-2.93-.06-.71-.14-1.37-.25-1.95-.14-.76-.33-1.4-.56-1.95-.15-.37-.32-.7-.52-.97-.96-1.34-2.72-2.01-5.29-2.01h-20c-2.56,0-4.33.67-5.29,2.01-.19.27-.36.6-.52.97-.23.54-.42,1.19-.56,1.95-.11.58-.19,1.24-.25,1.95-.08.88-.12,1.86-.12,2.93v21.9c0,3.86.48,6.46,1.45,7.81.96,1.34,2.73,2.01,5.29,2.01ZM372.75,580.38h-20.84v-26.32h20.84v26.32Z"/>
    <path d="M392.62,588.19h20c2.56,0,4.33-.67,5.29-2.01.96-1.34,1.45-3.95,1.45-7.81v-21.9c0-1.08-.04-2.05-.12-2.93-.06-.71-.14-1.37-.25-1.95-.14-.76-.34-1.4-.56-1.95-.16-.37-.32-.7-.52-.97-.96-1.34-2.73-2.01-5.29-2.01h-20c-2.56,0-4.33.67-5.29,2.01-.19.27-.36.6-.52.97-.23.54-.42,1.19-.56,1.95-.11.58-.19,1.24-.25,1.95-.08.88-.12,1.86-.12,2.93v21.9c0,3.86.48,6.46,1.45,7.81.96,1.34,2.73,2.01,5.29,2.01ZM413.04,580.38h-20.84v-26.32h20.84v26.32Z"/>
    <polygon points="432.08 551.59 432.08 549.64 432.08 546.65 425.71 546.65 425.71 549.64 425.71 551.59 425.71 553.54 425.71 588.19 432.08 588.19 432.08 569.92 448.34 588.19 458.5 588.19 438.29 566.21 449.95 553.54 451.75 551.59 453.54 549.64 456.29 546.65 447.13 546.65 444.53 549.64 442.84 551.59 441.14 553.54 432.08 563.96 432.08 553.54 432.08 551.59"/>
    <path d="M488.71,551.59l-.73-1.95-1.12-2.98h-6.1l-1.1,2.98-.72,1.95-.72,1.95-12.82,34.65h6.32l3.16-9.09h17.21l3.26,9.09h7.11l-13-34.65-.73-1.95ZM477.55,571.6l6.06-16.9,5.84,16.9h-11.9Z"/>
    <polygon points="536.97 549.64 536.97 551.59 536.97 553.54 536.97 562.75 517.24 562.75 517.24 553.54 517.24 551.59 517.24 549.64 517.24 546.65 510.91 546.65 510.91 549.64 510.91 551.59 510.91 553.54 510.91 588.19 517.24 588.19 517.24 570.32 536.97 570.32 536.97 588.19 543.34 588.19 543.34 553.54 543.34 551.59 543.34 549.64 543.34 546.65 536.97 546.65 536.97 549.64"/>
    <polygon points="577.21 553.54 577.21 551.59 577.21 549.64 577.21 546.65 570.9 546.65 570.9 549.64 570.9 551.59 570.9 553.54 570.9 588.19 597.58 588.19 597.58 580.38 577.21 580.38 577.21 553.54"/>
    <path d="M638.1,551.59c-.15-.76-.33-1.4-.56-1.95-.16-.37-.32-.7-.52-.97-.97-1.34-2.73-2.01-5.29-2.01h-20c-2.56,0-4.32.67-5.29,2.01-.19.27-.36.6-.52.97-.23.54-.42,1.19-.56,1.95-.11.58-.19,1.24-.25,1.95-.08.88-.12,1.86-.12,2.93v21.9c0,3.86.48,6.46,1.45,7.81.97,1.34,2.73,2.01,5.29,2.01h20c2.56,0,4.32-.67,5.29-2.01.97-1.34,1.45-3.95,1.45-7.81v-21.9c0-1.08-.04-2.05-.12-2.93-.06-.71-.14-1.37-.25-1.95ZM632.16,580.38h-20.84v-26.32h20.84v26.32Z"/>
    <path d="M669.61,549.64v30.74h-18v-33.72h-6.31v31.72c0,3.86.48,6.46,1.45,7.81.96,1.34,2.73,2.01,5.29,2.01h17.15c2.56,0,4.32-.67,5.29-2.01.96-1.34,1.45-3.95,1.45-7.81v-31.72h-6.31v2.98Z"/>
    <path d="M709.6,549.64v18.83c0,.91.08,3.3.26,7.16-.7-1.24-1.74-2.74-3.1-4.51l-13.73-17.59-1.52-1.95-1.53-1.95-2.33-2.98h-4.32v41.53h5.69v-22.7c0-1.56-.09-3.67-.26-6.35.66,1.18,1.42,2.31,2.26,3.38l19.95,25.68h4.31v-41.53h-5.68v2.98Z"/>
    <path d="M754.26,557.04c0-1.31-.05-2.46-.14-3.5-.07-.72-.15-1.37-.26-1.95-.14-.76-.32-1.41-.53-1.95-.12-.32-.26-.61-.41-.85-.9-1.42-2.69-2.13-5.39-2.13h-18.74c-2.56,0-4.32.67-5.29,2.01-.19.27-.36.6-.52.97-.23.54-.42,1.19-.56,1.95-.11.58-.19,1.24-.25,1.95-.08.88-.12,1.86-.12,2.93v21.9c0,3.86.48,6.46,1.45,7.81.97,1.34,2.73,2.01,5.29,2.01h18.74c2.56,0,4.32-.67,5.29-2.01.97-1.34,1.45-3.95,1.45-7.81v-14.33h-16.47v7.08h10.32v9.25h-19.74v-26.32h19.74v4.67l6.16-1.69Z"/>
    <polygon points="767.45 580.38 767.45 570.08 779.98 570.08 779.98 562.99 767.45 562.99 767.45 553.74 788.93 553.74 788.93 553.54 788.93 551.59 788.93 546.65 787.99 546.65 761.14 546.65 761.14 549.64 761.14 551.59 761.14 553.54 761.14 588.19 789.19 588.19 789.19 580.38 767.45 580.38"/>
  </g>
  <g>
    <path d="M528.6,377.45c1.32-1.75,2.64-3.6,3.95-5.58,15.96-24.08,16.62-45.45,14.36-59.14-6.67-40.41-20.65-59.23-43.97-59.23-1.37,0-2.81.07-4.26.2l-2.97.27,1.46,2.63s2.84,5.33.65,9.1c-1.77,3.05-6.58,4.65-13.89,4.66h0c-2.11,0-4.46-.13-6.98-.4l-.69-.07-58.65,39.33-1.77,1.19-.57.38h-.01s-.9,2.17-.9,2.17l-.87,2.11-.03.07h0c-.91,3-2.72,4.89-2.86,5.03-.45.45-.65,1.09-.54,1.73.11.63.52,1.16,1.1,1.43,3.04,1.4,4.82,3.13,5.3,5.14.7,2.96-1.56,5.85-1.58,5.87-.41.51-.55,1.2-.35,1.83.2.63.7,1.11,1.34,1.29,4.14,1.14,4.8,5.73,4.83,5.96.67,4.54-4.74,9.25-6.89,10.68-.63.42-.96,1.17-.85,1.92.12.75.65,1.37,1.38,1.58,1.45.42,2.71,4.19,3.09,6.82v52c0,.47.17.93.48,1.28l13.54,15.71.44.51,1.39,1.41.11.11.37.38,1.56,1.59v-32.69h13.73v-8.88h4.94v-4.33h2.8v-3.68h2.79v-19.38l11.38-12.35v-9.22h10.73v9.28l12.08,8.05h10.47l18.86,14.02s-.04.05-.06.07l.1-.03.17.12,1.39.95,1.6,1.1c.37-.46.74-.94,1.12-1.42.39-.5.79-1.02,1.18-1.54ZM467.08,342.95v11.58l-11.38,12.35v17.02h-2.79v3.68h-2.79v4.33h-4.94v8.88h-13.74v26.65l-10.15-11.78v-51.4c0-.09,0-.17-.02-.26-.15-1.12-.88-5.66-3.18-8.35,2.81-2.42,7.24-7.2,6.42-12.79-.03-.26-.75-5.63-5.33-8.24.85-1.71,1.66-4.27,1.03-7.04-.61-2.65-2.38-4.88-5.28-6.67,1.21-1.79,2.34-4.24,2.72-7.08l59.56-39.94c2.39.23,4.64.35,6.69.35h0c8.89,0,14.69-2.22,17.23-6.59,2.08-3.58,1.38-7.63.53-10.24.42-.01.84-.02,1.25-.02,13.27,0,31.87,5.8,40.16,55.98,3.88,23.5-5.31,43.55-13.69,56.23-1.3,1.96-2.61,3.8-3.92,5.53l-19.99-14.86h-10.57l-9.38-6.25v-11.08h-18.46Z" style="fill: #fff;"/>
    <path d="M520.93,612.3c0-1.38-.23-2.31-.69-2.8-.46-.48-1.38-.72-2.77-.72h-9.63c-1.32,0-2.22.23-2.72.68-.5.45-.74,1.34-.74,2.65v7.43c0,1.31.25,2.19.74,2.65.5.46,1.4.68,2.72.68h9.63c1.32,0,2.22-.23,2.72-.68.5-.45.74-1.34.74-2.65v-4.86h-8.47v2.4h5.3v3.14h-10.14v-8.93h10.14v1.59l3.16-.57Z" style="fill: #fff;"/>
    <path d="M541.27,617.35c1.09-.33,1.63-1.17,1.63-2.54v-3.3c0-1.82-1.05-2.73-3.14-2.73h-11.95v14.09h3.19v-5.32h3.09l5.62,5.32h4.65l-6.44-5.32c1.82,0,2.94-.06,3.35-.19ZM530.99,615.14v-3.93h7.3c.5,0,.85.06,1.05.19.27.15.4.46.4.93v1.69c0,.47-.13.78-.4.93-.2.13-.55.19-1.05.19h-7.3Z" style="fill: #fff;"/>
    <path d="M553.74,608.78l-7.9,14.09h3.25l1.63-3.09h8.84l1.68,3.09h3.65l-8.01-14.09h-3.14ZM552.09,617.24l3.11-5.73,3,5.73h-6.11Z" style="fill: #fff;"/>
    <path d="M582.84,616.18c0,.31.04,1.12.14,2.43-.36-.42-.89-.93-1.6-1.53l-9.82-8.3h-2.22v14.09h2.92v-7.7c0-.53-.04-1.25-.13-2.16.34.4.73.78,1.16,1.15l10.25,8.71h2.22v-14.09h-2.92v7.4Z" style="fill: #fff;"/>
    <path d="M607.53,610.42c-1.37-1.09-3.26-1.64-5.68-1.64h-8.98v14.09h8.14c2.65,0,4.56-.36,5.74-1.09,2.05-1.29,3.08-3.31,3.08-6.03,0-2.35-.77-4.12-2.3-5.32ZM604.63,619.45c-.9.51-2.34.76-4.32.76h-4.19v-8.93h5.76c3.07,0,4.6,1.47,4.6,4.4,0,1.82-.61,3.08-1.84,3.77Z" style="fill: #fff;"/>
    <path d="M639.71,617.35c1.08-.33,1.62-1.17,1.62-2.54v-3.3c0-1.82-1.04-2.73-3.14-2.73h-11.95v14.09h3.19v-5.32h3.08l5.63,5.32h4.65l-6.43-5.32c1.82,0,2.94-.06,3.35-.19ZM629.44,615.14v-3.93h7.3c.5,0,.85.06,1.05.19.27.15.41.46.41.93v1.69c0,.47-.14.78-.41.93-.2.13-.55.19-1.05.19h-7.3Z" style="fill: #fff;"/>
    <path d="M652.18,608.78l-7.9,14.09h3.25l1.62-3.09h8.85l1.67,3.09h3.65l-8-14.09h-3.14ZM650.53,617.24l3.11-5.73,3,5.73h-6.12Z" style="fill: #fff;"/>
    <path d="M679.77,608.78h-11.95v14.09h3.19v-5.49h8.76c2.09,0,3.14-.91,3.14-2.73v-3.14c0-1.82-1.05-2.73-3.14-2.73ZM679.77,613.83c0,.48-.13.78-.4.93-.2.13-.55.19-1.06.19h-7.3v-3.74h7.3c.51,0,.86.06,1.06.19.27.15.4.46.4.93v1.5Z" style="fill: #fff;"/>
    <rect x="687.91" y="608.78" width="3.25" height="14.09" style="fill: #fff;"/>
    <path d="M712.95,610.42c-1.37-1.09-3.27-1.64-5.68-1.64h-8.98v14.09h8.14c2.65,0,4.56-.36,5.73-1.09,2.06-1.29,3.08-3.31,3.08-6.03,0-2.35-.77-4.12-2.3-5.32ZM710.06,619.45c-.9.51-2.34.76-4.32.76h-4.19v-8.93h5.76c3.07,0,4.6,1.47,4.6,4.4,0,1.82-.61,3.08-1.84,3.77Z" style="fill: #fff;"/>
    <path d="M732.86,614.27h-8.71v-3.03h9.14v1.61l2.87-.68c0-1.33-.24-2.22-.73-2.69-.48-.46-1.4-.7-2.73-.7h-7.92c-1.32,0-2.22.23-2.72.68-.5.45-.75,1.34-.75,2.65v1.56c0,1.31.25,2.19.75,2.65.5.45,1.4.68,2.72.68h8.71v3.22h-9.87v-1.66l-2.87.6c0,1.46.23,2.44.68,2.95.45.51,1.39.77,2.81.77h8.62c1.32,0,2.23-.23,2.73-.68.5-.45.76-1.34.76-2.65v-1.94c0-1.31-.25-2.19-.76-2.65-.51-.45-1.41-.68-2.73-.68Z" style="fill: #fff;"/>
    <path d="M745.41,618.63h-2.54c-.43,0-.7.06-.81.16-.11.11-.16.39-.16.84v1.7c0,.67.22,1.01.65,1.01h1.54l-2.3,4.15h1.6l2.68-4.04v-2.81c0-.67-.22-1.01-.65-1.01Z" style="fill: #fff;"/>
    <path d="M771.67,617.3l-6.57-8.52h-2.62v14.09h2.62v-8.82c0-.37-.03-.83-.08-1.4.18.46.46.94.84,1.45l5.24,7.07h.65l5.25-7.04c.38-.64.65-1.13.81-1.48-.07.66-.11,1.14-.11,1.45v8.76h3v-14.09h-2.6l-6.44,8.52Z" style="fill: #fff;"/>
    <rect x="787.55" y="608.78" width="3.24" height="14.09" style="fill: #fff;"/>
    <path d="M51.58,571.6h11.89l-5.84-16.9-6.05,16.9ZM55.58,568.77l2.01-5.6,1.94,5.6h-3.94Z" style="fill: #fff;"/>
    <path d="M162.47,580.38h20.84v-26.32h-20.84v26.32ZM165.28,556.89h15.23v20.66h-15.23v-20.66Z" style="fill: #fff;"/>
    <path d="M351.91,580.38h20.84v-26.32h-20.84v26.32ZM354.71,556.89h15.23v20.66h-15.23v-20.66Z" style="fill: #fff;"/>
    <path d="M392.2,580.38h20.84v-26.32h-20.84v26.32ZM395.01,556.89h15.23v20.66h-15.23v-20.66Z" style="fill: #fff;"/>
    <path d="M477.55,571.6h11.9l-5.84-16.9-6.06,16.9ZM481.55,568.77l2-5.6,1.94,5.6h-3.94Z" style="fill: #fff;"/>
    <path d="M611.32,580.38h20.84v-26.32h-20.84v26.32ZM614.12,556.89h15.23v20.66h-15.23v-20.66Z" style="fill: #fff;"/>
    <path d="M770.26,577.55v-4.64h12.53v-12.75h-12.53v-3.59h21.47v-3.03h.12v-176.91l-44.86,26.08v40.12h-.43v-14.08h-11.16v-26h-40.14v12.13h-27.05v5.85h-28.55v-2.16h-18.25v-15.6h-26.19v14.51h-16.53v-57.63h-8.8v-8.23h-10.35c.35-1.2.67-2.4.96-3.6,4.7-19.37,2.66-40.11-6.8-69.37-10.6-32.78-31.93-39.66-47.96-39.66-8.06,0-14.42,1.76-16.84,2.55-3.59-2.71-7.07-4.08-10.33-4.08-10.81,0-15.42,14.46-16.39,18.04l-55.1,36.48s-.06,0-.09,0c-.61,0-1.25.13-1.84.43l-.49-6.18c2.36-1.96,7.78-6.93,7.78-11.37s-2.41-8.1-5.12-9.6v-.52c2.4-1.31,7.61-4.8,7.61-10.4s-3.6-9.67-6.86-10.87v-6.26c2.36-2.72,11.62-14.24,12.31-28.53,7.44-1.22,33.6-6.39,33.6-18.68,0-1.08-.86-1.95-1.93-1.95h-43.33v-26.46c2.64-2.59,12.32-12.95,12.32-25.05v-1.95s-16.99,0-16.99,0c-.02,0-1.45,0-3.67,0,.92-5.73,1.19-13.91,1.19-13.91.56-6.4.4-13.64-2.21-18.17,0,0,1.63-11.8-4.89-12.39,0,0-2.21-6.96,0-13.25,2.21-6.29.19-8.9.19-8.9,0,0,15.34-13.55,16.11-18.48.77-4.93,2.68-9.58,6.23-8.71,3.55.87,1.63-5.71,1.63-5.71,0,0,5.25-4.06.52-8.61-.77-.74-1.56-1.4-2.37-2.05-4.18-3.39-8.44-6.41-8.12-16.72,0,0-.96-4.26-4.89-2.52,0,0-1.72.29-3.88-2.95,0-.02-.02-.03-.03-.04-1.84-2.71-6.49-3.06-6.31,0,.04.56.23,1.23.63,2.02,2.62,5.16.83,4.71.83,4.71,0,0-5.88-6.13-8.76.39,0,0-.64.92-1.42,1.8-.59.66-1.25,1.3-1.77,1.49-1.22.45-2.05,2.71.25,3.75.62.28,1.12.67,1.52,1.1,1.08,1.17,1.42,2.57,1.42,2.57,0,0,.96,6.08.24,12.86-.45,4.28-1.56,8.83-4.02,12.31,0,0-6.84,2.06-2.94,7.74,0,0-2.62,2.78-2.24,5.16,0,0-.32,2.52.38,3.35,0,0-3.58,3.87-2.88,7.74,0,0-2.81,1.93-1.09,5.81,0,0-.77,4.06-.19,5.81,0,0,.45,3.48,1.47,4.84,0,0,2.68,5.03,4.09,6.26,0,0,20.01,27.61,15.37,42.28,0,0,0,.18,0,.42.26.02.52.02.78.02-8.66,0-20.59,0-20.59,0v1.95c0,12.1,9.68,22.46,12.31,25.05v26.46h-45.16v1.95c0,12.29,26.16,17.46,33.6,18.68.69,14.29,9.95,25.82,12.31,28.53v6.26c-3.26,1.2-6.86,5.03-6.86,10.87s5.21,9.09,7.61,10.4v.52c-2.7,1.5-5.12,5.1-5.12,9.6s5.42,9.41,7.79,11.37l-.49,6.18c-.43-.22-.88-.34-1.33-.4l-10.34-17.64-.3-.23c-.3-.23-3.01-2.22-6.08-2.22-2.07,0-3.83.9-5.11,2.6-3.74,4.99-1.39,10.18-1.29,10.4l13.54,19.61c-3.36,6.71-1.3,12.82,1.11,16.39-2.9,1.79-4.67,4.02-5.28,6.67-.64,2.77.18,5.32,1.03,7.04-4.57,2.6-5.29,7.97-5.32,8.2-.82,5.61,3.61,10.41,6.42,12.83-2.3,2.69-3.03,7.23-3.18,8.35l-.02,51.66-11.11,13.44v-90.27h-97.67v76.7h-11.59v-38.78h-77.06v84.06h-17.6v-32.71h-35.2v19.07h-4.29v-89.91H53.23v73.45H0v122.84h.2v37.48h33.67v-13.48H12.13v-4.64h12.52v-12.75h-12.52v-3.59h21.47v-3.03h15.65l-12.46,33.66-1.42,3.83h12.35l.66-1.9,2.5-7.2h13.25l2.59,7.23.67,1.87h13.14l-1.44-3.84-12.62-33.64h13.54c-.07.9-.11,1.87-.11,2.93v4.59c0,4.58.63,7.59,1.98,9.47.84,1.17,2,2.02,3.47,2.55l-4.59,1.45-1.97.62v2.08c0,4.92.54,8.14,1.7,10.13,1.41,2.42,4.07,3.65,7.89,3.65h16.79c3.48,0,6.03-1.07,7.57-3.16,1.38-1.89,2.03-4.9,2.03-9.49v-5.72c0-4.59-.64-7.6-2.02-9.49-.89-1.22-2.13-2.09-3.69-2.6l3.48-1.26,1.86-.67v-2c0-1.12-.04-2.15-.11-3.1h1.21v3.35h12.47v34.13h11.93v-34.13h12.52v-3.35h1c-.07.9-.1,1.87-.1,2.93v21.9c0,4.58.63,7.59,1.98,9.47,1.52,2.11,4.06,3.18,7.56,3.18h20c3.49,0,6.04-1.07,7.56-3.18,1.35-1.88,1.98-4.89,1.98-9.47v-21.9c0-1.06-.04-2.04-.1-2.93h1.8l8.91,35.35.54,2.14h6.47c.32,1.24.71,2.45,1.2,3.63,7.79,18.82,36.26,28.37,84.64,28.37h.01c5.49,0,11.32-.13,17.28-.37h24.77c1.4,1.25,6.3,5.15,12.57,5.15,4.19,0,8.1-1.73,11.64-5.15h15.37c.92.55,3.49,1.9,6.35,1.9,1.99,0,3.72-.64,5.15-1.9h7.57c.93.7,3.35,2.3,6.28,2.3,2.07,0,3.96-.77,5.63-2.3h5.65c.79.57,2.68,1.72,4.93,1.72,1.62,0,3.1-.58,4.38-1.72h4.93c.78.45,2.74,1.43,4.9,1.43,1.55,0,2.89-.48,4.01-1.43h6.4c.66.37,2.15,1.07,3.82,1.07,1.19,0,2.26-.37,3.13-1.07h5.03c.8.35,3.16,1.29,5.56,1.29,1.65,0,3.01-.43,4.06-1.29h18.98l.39-.51c2.32-3.08,5.29-10.33-.12-15.79l-.37-.38h-18.9c-.72-.35-2.58-1.16-4.53-1.16-1.39,0-2.57.39-3.51,1.16h-6.69c-.67-.42-2.15-1.19-3.85-1.19-1.23,0-2.36.41-3.3,1.19h-5.12c-.75-.22-3.48-.94-6.43-.94-1.95,0-3.62.32-4.99.94h-1.42c-.75-.25-3.26-1.01-6.18-1.01-1.96,0-3.73.34-5.26,1.01h-6.05c-.69-.13-4.1-.72-7.01-.72-1.83,0-3.11.23-3.96.72h-7.72c-.88-.36-3.81-1.44-7.06-1.44-2.18,0-4.08.48-5.65,1.44h-14.12c-1.42-1.18-6.5-4.98-12.83-4.98-4.21,0-8.08,1.68-11.51,4.98h-54.42s-1.27.05-3.37.05c-6.11,0-18.05-.37-29.34-2.86-11.74-2.58-19.4-6.65-22.89-12.14h3.57l.54-2.14,7.99-31.69c1.11-1.2,2.27-2.41,3.5-3.65h.89v37.48h11.3v-22.88l16.93,21.79.84,1.09h8.49v-37.48h20.61v37.48h11.93v-17.87h14.12v17.87h11.98v-37.48h2.13c-.07.9-.11,1.87-.11,2.93v21.9c0,4.58.63,7.6,1.99,9.47,1.52,2.11,4.06,3.18,7.56,3.18h20c3.5,0,6.04-1.07,7.56-3.18,1.35-1.88,1.98-4.89,1.98-9.47v-21.9c0-1.06-.04-2.04-.11-2.93h1.42c-.07.9-.1,1.87-.1,2.93v21.9c0,4.58.63,7.59,1.98,9.47,1.52,2.11,4.06,3.18,7.56,3.18h20c3.5,0,6.04-1.07,7.56-3.18,1.35-1.88,1.98-4.89,1.98-9.47v-21.9c0-1.06-.04-2.04-.1-2.93h.84v37.48h11.98v-13.72l11.37,12.78.84.94h26.62l.66-1.9,2.5-7.2h13.25l2.59,7.23.67,1.87h13.14l-1.44-3.84-12.62-33.64h15.66v37.48h11.93v-17.87h14.12v17.87h11.98v-37.48h21.95v37.48h32.3v-13.48h-20.37v-24.01h22.28c-.07.9-.11,1.87-.11,2.93v21.9c0,4.58.63,7.59,1.98,9.47,1.52,2.11,4.06,3.18,7.56,3.18h20c3.5,0,6.04-1.07,7.56-3.18,1.35-1.88,1.98-4.89,1.98-9.47v-21.9c0-1.06-.04-2.04-.11-2.93h1.32v24.83c0,4.58.63,7.59,1.98,9.47,1.52,2.11,4.06,3.18,7.56,3.18h17.15c3.49,0,6.04-1.07,7.56-3.18,1.35-1.88,1.98-4.89,1.98-9.47v-24.83h1.79v37.48h11.3v-22.88l16.93,21.79.84,1.09h8.49v-37.48h1.26c-.07.9-.11,1.87-.11,2.93v21.9c0,4.58.63,7.59,1.99,9.47,1.52,2.11,4.06,3.18,7.56,3.18h18.74c3.5,0,6.04-1.07,7.56-3.18,1.35-1.88,1.98-4.89,1.98-9.47v-17.16h-7.3l5.23-1.44,2.07-.57v-2.16c0-1.29-.04-2.45-.13-3.5h1.39v37.48h33.67v-13.48h-21.74ZM395.34,93.41s2.2-.39,2.06,2.95c-.14,3.34-1.39,5.62-1.39,5.62,0,0-3.31-7.31-.67-8.56ZM406.61,39.85c1.7-1.87.78-5.46.27-7-.15-.46-.27-.74-.27-.74,1.74-.43,3.31,0,4.64.74,2.75,1.55,4.47,4.53,4.47,4.53-1.63,3.15-9.11,2.47-9.11,2.47ZM401.05,47.11c-6.38.97-2.83,6.53-2.83,6.53-9.01,7.16-12.27,15.72-12.27,15.72-1.29-2.18,1.68-10.21,3.88-11.66,2.21-1.45,1.49-4.45,1.49-4.45l-2.01-2.61c-2.35-2.95,3.36-6.72,3.36-6.72-.82-2.61,1.82-4.4,1.82-4.4,0,0,3.21-.63,1.79-2.18-.99-1.07.35-3.25,1.27-4.48.41-.55.73-.91.73-.91l-.14-2.05s-6.23-6.44-.77-9.34c5.46-2.9,6.71,4.84,6.71,4.84,4.22,1.94,1.87,4.16,1.87,4.16,0,0-2.72,1.52-2.25,3.31.07.28.22.57.47.85,1.87,2.13-2.69,7.59-2.69,7.59.53,3.92-.43,5.81-.43,5.81ZM383.65,73.86s.38-2.39,2.49-2.32c2.11.07.7,10.97,0,12.13,0,0-.19-4.39-2.05-3.68,0,0,2.96-4.77-.45-6.13ZM406.9,42.41c5.32,1.74-.91,3.29-.91,3.29-1.2.05-1.77-.87-1.77-.87,0,0-2.64-4.16,2.68-2.42ZM384.85,14.11s1.15-2.81,1.92-2.13c.77.68,4.41-.1,4.41-.1-2.25-.63-2.45-2.81-2.45-2.81,3.59-1.98,6.74,3.44,6.74,3.44,0,0,1.98-.45,1.67-3.93-.32-3.49-1.67-3.55-1.67-3.55.45-7.03,3.84,1.1,3.84,1.1.83,2.13,3.71,2.77,3.71,2.77,0,0,2.87-3.42,2.81,1.35-.07,4.78,2.49,10.13,2.49,10.13-.06,1.49,2.75,4.42,2.75,4.42,3.55,1.21,5.61,4.79,5.61,4.79.07.59.11,1.09.11,1.5v.16c-.02,1.22-.33,1.61-.73,1.6h0c-.7-.02-1.63-1.23-1.63-1.23-.72-4.16-4.46-4.98-4.46-4.98l-.53-.78s-2.68-2.76-3.07-4.4c-.38-1.64-1.49-2.62-2.06-3.19-.58-.58-.86-2.03-.86-2.03-.19-4.3-1.34-4.96-1.34-4.96,0,0-1.25-1.03-1.29,2.79-.05,3.82-2.16,2.18-2.16,2.18-.72-4.69-2.07-.38-2.07-.38-4.37,5.13-2.44-1.45-2.44-1.45,0,0-1.25-3.05-4.89-.49-3.64,2.57-4.41.2-4.41.2ZM381.59,48.36s1.87.39,1.87-1.02,1.39-1.6,1.39-1.6c0,0,1.05-1.11.79-1.79-.27-.68,1.18-2.03,1.18-2.03,0,0,1.87-.05,1.58-2.02-.29-1.97.86-3.54.86-3.54,0,0-.22-1.62-.38-3.52-.14-1.74-.24-3.7-.05-4.86.38-2.42-.86-9-.86-9,3.8-3.26,3.45,8.49,3.58,8.49s4.31,4.06,2.24,4.45c-.53.1-.84.45-1.01.92-.49,1.34.21,3.63.21,3.63,0,0-3.8,2.9-3.36,4.32.45,1.42-2.3,3.83-2.3,3.83,0,0-1.81,3.44-2.19,3.35-.39-.1-.96,1.36-.96,1.36,0,0-1.44,3.29-3.21,2.18-1.77-1.11.63-3.15.63-3.15ZM397.14,127.79s1.47-7.38-2.18-11.29l-6.64-14.58s-6.78-12.51-8.5-13.54c0,0-2.9-.85-2.64-3.39.26-2.54-2.01-3.07-2.01-3.07,0,0-.6-.39.14-3.17.74-2.78-.37-5.95-.37-5.95,0,0,2-2.51,1.71-3.68-.29-1.16,2.11-5.08,2.11-5.08,0,0,2.15-3.19.57-4.16-1.58-.97,2.01-6.68,3.79-7.26,1.77-.58,4.79.58,2.25,3.68,0,0-.72,1.5-.24,2.28,0,0-3.5,4.3-3.02,5.37,0,0-3.36,4.11-2.93,4.99,0,0-1.45,1.31,1.12,1.55,2.57.24-2.18,1.16-2.18,1.16,0,0-3.07,3.53-.53,5.32,0,0,1.87-1.35,2.97.29,0,0-3.31,2.13-2.59,4.01,0,0-.53,1.89,4.32,1.45,0,0-3.74,1.89-1.15,4.55,0,0,2.83,1.98,3.93.63,1.1-1.35.55,5.37.55,5.37,0,0,3.24.92,3.91,2.81,0,0,1.2-4.16.33-5.9l.14-13.21s2.21-5.17-.19-6.82c-2.4-1.64,8.45-12.53,8.45-12.53l4.8-3.94s2.43-2.19,1.32-2.93c0,0,7.19-4.98,3.88.72-3.31,5.71-10.63,10.02-10.63,10.02,0,0-3.61,2.8-4.57,7.59-.96,4.79,0,8.37,0,8.37,0,0-1.87,8.37-.86,14.08l.29,6.72s.05,1.94,1.44,2.27c1.39.34.17,5.71,3.71,1.94,0,0,3.1,3.37,2.88,9.95-.18,5.48-.71,5.13-.34,9.3.07.84.18,1.86.34,3.15,0,0-.73,5.45-1.73,9.73h-2.46c.43-2.31.98-4.94.78-6.79ZM30.8,553.74H9.32v9.26h12.53v7.08h-12.53v10.3h21.74v7.81H3v-41.53h27.79v7.08ZM76.48,588.19h-7.11l-3.26-9.09h-17.21l-3.16,9.09h-6.31l12.82-34.65.72-1.95.72-1.95,1.1-2.98h6.1l1.12,2.98.73,1.95.73,1.95,13,34.65ZM106.04,558.65v-4.75h-17.79v8.93h16.95c2.56,0,4.33.67,5.32,2.01.98,1.34,1.47,3.94,1.47,7.81v5.72c0,3.86-.49,6.46-1.47,7.81-.98,1.34-2.75,2.01-5.32,2.01h-16.79c-2.77,0-4.6-.75-5.47-2.25-.88-1.5-1.31-4.4-1.31-8.69l5.58-1.77v4.91h19.21v-9.5h-16.95c-2.56,0-4.32-.67-5.29-2.01-.96-1.34-1.45-3.94-1.45-7.81v-4.59c0-1.08.04-2.05.12-2.93.06-.71.14-1.37.25-1.95.14-.76.33-1.4.56-1.95.15-.37.32-.7.52-.97.97-1.34,2.73-2.01,5.29-2.01h15.42c2.6,0,4.37.68,5.32,2.05.18.26.34.58.48.93.23.54.41,1.19.56,1.95.11.58.19,1.24.26,1.95.08.93.13,1.95.13,3.1l-5.58,2.01ZM103.23,556.73v3.27h-12.17v-3.27h12.17ZM90,577.55v-3.83h13.6v3.83h-13.6ZM149.65,554.06h-12.53v34.13h-6.31v-34.13h-12.47v-7.4h31.31v7.4ZM189.63,578.37c0,3.86-.48,6.46-1.45,7.81-.97,1.34-2.73,2.01-5.29,2.01h-20c-2.56,0-4.32-.67-5.29-2.01-.97-1.34-1.45-3.95-1.45-7.81v-21.9c0-1.08.04-2.05.12-2.93.06-.71.14-1.37.25-1.95.14-.76.33-1.4.56-1.95.15-.37.32-.7.52-.97.96-1.34,2.73-2.01,5.29-2.01h20c2.56,0,4.32.67,5.29,2.01.19.27.36.6.52.97.23.54.42,1.19.56,1.95.11.58.19,1.24.25,1.95.08.88.12,1.86.12,2.93v21.9ZM250.41,605.7c11.52,2.53,23.67,2.91,29.88,2.91,2.16,0,3.42-.04,3.42-.04h55.43l.38-.39c3.03-3.05,6.42-4.6,10.08-4.6,6.31,0,11.44,4.6,11.49,4.65l.37.34h15.86l.32-.22c1.21-.81,2.74-1.22,4.56-1.22,3.25,0,6.25,1.32,6.27,1.33l.25.12h9.11l.36-.3c.05-.04.56-.42,2.75-.42,2.94,0,6.62.69,6.65.7l6.96.02.26-.13c1.25-.59,2.75-.89,4.44-.89,2.96,0,5.49.92,5.52.93l.22.08h2.46l.27-.14c1.05-.53,2.44-.8,4.12-.8,3,0,5.84.87,5.87.88l.18.06h6.53l.37-.39c.54-.54,1.16-.81,1.9-.81,1.4,0,2.7.94,2.71.94l.34.25h8.52l.38-.39c.52-.52,1.21-.77,2.11-.77,1.78,0,3.58.98,3.6.99l.29.17h18.45c3.88,4.39.96,9.8-.12,11.48h-18.7l-.38.38c-.6.6-1.49.91-2.66.91-2.29,0-4.7-1.15-4.73-1.16l-.26-.13h-6.62l-.38.38c-.46.46-1.03.69-1.74.69-1.4,0-2.77-.86-2.78-.87l-.32-.2h-8.15l-.38.38c-.7.71-1.55,1.05-2.6,1.05-1.95,0-3.82-1.2-3.84-1.21l-.32-.21h-6.71l-.38.38c-.89.9-1.86,1.34-2.96,1.34-1.96,0-3.65-1.41-3.67-1.41l-.36-.31h-7.61l-.38.38c-1.26,1.27-2.68,1.92-4.21,1.92-2.7,0-4.96-1.96-4.98-1.98l-.37-.32h-9.55l-.38.38c-1.01,1.02-2.23,1.52-3.73,1.52-2.7,0-5.25-1.67-5.27-1.68l-.32-.22h-17.18l-.38.38c-3.14,3.16-6.57,4.77-10.2,4.77-6.24,0-11.12-4.74-11.17-4.78l-.37-.37h-25.86c-5.97.24-11.77.37-17.22.37h-.01c-47.23,0-74.91-9.01-82.26-26.77-.46-1.12-.84-2.26-1.13-3.41l.35-1.32,4.85-18.38,4.78,18.37.55,2.12h2.08c3.47,6.81,11.96,11.75,25.31,14.68ZM239.18,549.64l-.49,1.95-.49,1.95-.73,2.88-.67,2.66-.7,2.78-6.64,26.32h-4.26l-1.74-6.71-5.35-20.57-.38-1.46-1.29,4.9-4.71,17.87-1.16,4.4-.41,1.57h-4.37l-8.74-34.65-.49-1.95-.49-1.95-.75-2.98h6.52l.74,2.98.48,1.95.48,1.95,5.19,20.97,5.43-20.97.51-1.95.5-1.95.77-2.98h4.42l.79,2.98.19.7.33,1.25.11.42.4,1.53.06.21,4.61,17.41.48,1.82.41,1.53,1-4.23.91-3.87,3.04-12.87.46-1.95.46-1.95.7-2.98h5.63l-.75,2.98ZM206.42,553.54h4.83l-2.47,9.53-2.36-9.53ZM225.07,553.54h4.71l-2.22,9.4-2.49-9.4ZM279.31,588.19h-4.32l-19.95-25.68c-.84-1.07-1.6-2.2-2.26-3.38.17,2.68.26,4.8.26,6.35v22.7h-5.69v-41.53h4.32l2.33,2.98,1.52,1.95,1.52,1.95,13.73,17.59c1.37,1.77,2.4,3.27,3.1,4.51-.17-3.86-.26-6.25-.26-7.16v-21.81h5.68v41.53ZM260.63,553.54h10.19v13.05l-10.19-13.05ZM337.95,588.19h-6.37v-17.87h-19.74v17.87h-6.32v-41.53h6.32v16.1h19.74v-16.1h6.37v41.53ZM314.65,559.92v-6.38h14.12v6.38h-14.12ZM379.06,578.37c0,3.86-.48,6.46-1.45,7.81-.96,1.34-2.72,2.01-5.29,2.01h-20c-2.56,0-4.33-.67-5.29-2.01-.97-1.34-1.45-3.95-1.45-7.81v-21.9c0-1.08.04-2.05.12-2.93.06-.71.14-1.37.25-1.95.14-.76.33-1.4.56-1.95.15-.37.32-.7.52-.97.96-1.34,2.73-2.01,5.29-2.01h20c2.56,0,4.33.67,5.29,2.01.19.27.36.6.52.97.23.54.42,1.19.56,1.95.11.58.19,1.24.25,1.95.08.88.12,1.86.12,2.93v21.9ZM419.36,578.37c0,3.86-.48,6.46-1.45,7.81-.96,1.34-2.73,2.01-5.29,2.01h-20c-2.56,0-4.33-.67-5.29-2.01-.97-1.34-1.45-3.95-1.45-7.81v-21.9c0-1.08.04-2.05.12-2.93.06-.71.14-1.37.25-1.95.14-.76.34-1.4.56-1.95.15-.37.32-.7.52-.97.96-1.34,2.73-2.01,5.29-2.01h20c2.56,0,4.33.67,5.29,2.01.19.27.36.6.52.97.23.54.42,1.19.56,1.95.11.58.19,1.24.25,1.95.08.88.12,1.86.12,2.93v21.9ZM448.34,588.19l-16.26-18.27v18.27h-6.37v-41.53h6.37v17.3l9.07-10.42,1.69-1.95,1.7-1.95,2.6-2.98h9.15l-2.74,2.98-1.8,1.95-1.79,1.95-11.67,12.67,20.21,21.97h-10.16ZM434.89,556.44v-2.9h2.52l-2.52,2.9ZM462.38,588.24l-1.82-1.98-18.44-20.05,11.67-12.67h21.44l-12.45,33.66-.39,1.05ZM502.45,588.19h-7.11l-3.26-9.09h-17.21l-3.16,9.09h-6.32l12.82-34.65.72-1.95.72-1.95,1.1-2.98h6.1l1.12,2.98.73,1.95.73,1.95,13,34.65ZM543.34,588.19h-6.37v-17.87h-19.73v17.87h-6.32v-41.53h6.32v16.1h19.73v-16.1h6.37v41.53ZM520.04,559.92v-6.38h14.12v6.38h-14.12ZM597.58,580.38v7.81h-26.68v-41.53h6.31v33.72h20.37ZM638.47,578.37c0,3.86-.48,6.46-1.45,7.81-.97,1.34-2.73,2.01-5.29,2.01h-20c-2.56,0-4.32-.67-5.29-2.01-.97-1.34-1.45-3.95-1.45-7.81v-21.9c0-1.08.04-2.05.12-2.93.06-.71.14-1.37.25-1.95.14-.76.33-1.4.56-1.95.15-.37.32-.7.52-.97.97-1.34,2.73-2.01,5.29-2.01h20c2.56,0,4.32.67,5.29,2.01.19.27.36.6.52.97.23.54.42,1.19.56,1.95.11.58.19,1.24.25,1.95.07.88.12,1.86.12,2.93v21.9ZM675.93,578.37c0,3.86-.48,6.46-1.45,7.81-.97,1.34-2.73,2.01-5.29,2.01h-17.15c-2.56,0-4.33-.67-5.29-2.01-.97-1.34-1.45-3.95-1.45-7.81v-31.72h6.31v33.72h18v-33.72h6.31v31.72ZM654.42,577.55v-24.01h12.39v24.01h-12.39ZM715.28,588.19h-4.31l-19.95-25.68c-.84-1.07-1.6-2.2-2.26-3.38.18,2.68.26,4.8.26,6.35v22.7h-5.69v-41.53h4.32l2.33,2.98,1.53,1.95,1.52,1.95,13.73,17.59c1.37,1.77,2.4,3.27,3.1,4.51-.18-3.86-.26-6.25-.26-7.16v-21.81h5.68v41.53ZM696.6,553.54h10.19v13.06l-10.19-13.06ZM748.1,558.73v-4.67h-19.74v26.32h19.74v-9.25h-10.32v-7.08h16.47v14.33c0,3.86-.48,6.46-1.45,7.81-.96,1.34-2.72,2.01-5.29,2.01h-18.74c-2.56,0-4.32-.67-5.29-2.01-.97-1.34-1.45-3.95-1.45-7.81v-21.9c0-1.08.04-2.05.12-2.93.06-.71.14-1.37.25-1.95.14-.76.33-1.4.56-1.95.15-.37.32-.7.52-.97.97-1.34,2.73-2.01,5.29-2.01h18.74c2.7,0,4.5.71,5.39,2.13.15.24.29.53.41.85.22.54.39,1.19.53,1.95.11.58.19,1.24.26,1.95.09,1.04.14,2.19.14,3.5l-6.16,1.69ZM745.3,573.96v3.59h-14.12v-20.66h14.12v4.32h-10.31v12.75h10.31ZM758.33,549.64h-2.04c-.26-.94-.6-1.72-1.01-2.37-1.44-2.29-4.05-3.45-7.76-3.45h-18.74c-3.5,0-6.04,1.07-7.56,3.18-.51.71-.92,1.58-1.23,2.64h-1.91v-5.82h-11.3v5.82h-13.24l-3.7-4.74-.85-1.08h-8.48v5.82h-1.79v-5.82h-11.93v5.82h-12.39v-5.82h-11.93v5.82h-1.96c-.31-1.06-.72-1.93-1.23-2.64-1.52-2.11-4.06-3.18-7.56-3.18h-20c-3.5,0-6.04,1.07-7.56,3.18-.51.71-.92,1.58-1.23,2.64h-22.93v-5.82h-11.93v5.82h-21.95v-5.82h-11.98v5.82h-14.12v-5.82h-11.93v5.82h-17.12l-1.49-3.99-.69-1.83h-9.99l-.68,1.85-1.47,3.97h-19.29l.97-1.06,4.38-4.76h-16.87l-.84.97-4.22,4.85h-5.92v-5.82h-11.98v5.82h-1.49c-.31-1.06-.72-1.93-1.23-2.64-1.52-2.11-4.06-3.18-7.56-3.18h-20c-3.5,0-6.04,1.07-7.56,3.18-.51.71-.92,1.58-1.23,2.64h-2.72c-.31-1.06-.72-1.93-1.23-2.64-1.52-2.11-4.06-3.18-7.56-3.18h-20c-3.5,0-6.04,1.07-7.56,3.18-.51.71-.92,1.58-1.23,2.64h-2.78v-5.82h-11.98v5.82h-14.12v-5.82h-11.93v5.82h-20.61v-5.82h-11.3v5.82h-13.24l-3.7-4.74-.39-.5-.45-.58h-8.49v5.82h-2.48l.58-2.29.89-3.53h-11.46l-.51,2.18-.86,3.64h-6.66l-.19-.72-.43-1.63-.36-1.36-.56-2.11h-8.74l-.55,2.12-.96,3.7h-6.8l-.91-3.67-.53-2.15h-12.33l.89,3.53.58,2.29h-1.47c-.31-1.06-.72-1.93-1.23-2.64-1.52-2.11-4.07-3.18-7.56-3.18h-20c-3.5,0-6.04,1.07-7.56,3.18-.51.71-.92,1.58-1.23,2.64h-1.65v-5.82h-36.93v5.82h-1.87c-.3-1.02-.68-1.86-1.16-2.55-1.5-2.17-4.06-3.27-7.62-3.27h-15.42c-3.5,0-6.04,1.07-7.56,3.18-.51.71-.92,1.59-1.23,2.64h-15.65l-1.49-3.99-.69-1.83h-9.99l-.68,1.85-1.47,3.97h-17.09v-5.82H3.86v-109.23h53.23v-73.44h59.03v89.91h12.02v-19.07h27.47v32.72h25.33v-84.06h69.33v38.78h19.32v-76.7h89.94v95.53l1.93-1.92h.02s1.04-1.05,1.04-1.05l.88-.87.52-.52h0l14.46-16.78v-52.72c.38-2.63,1.64-6.4,3.09-6.82l4.05-1.17-3.52-2.33c-.08-.05-7.68-5.26-6.88-10.71.03-.19.69-4.79,4.83-5.93l2.83-.79-1.84-2.32s-2.29-2.92-1.59-5.87c.47-2.01,2.26-3.74,5.3-5.14l2.55-1.17-1.99-1.99c-.26-.26-6.36-6.5-1.52-14.75l.63-1.08-14.65-21.18c-.24-.62-1.17-3.48.93-6.27.54-.73,1.17-1.05,2.02-1.05,1.3,0,2.75.77,3.47,1.24l10.51,17.93.76,1.25v.04s2.55,4.12,2.55,4.12c0,0,.45-.25.94-.45h0s0,0,0,0c0,0,0,0,.01,0,.05-.02.37-.1.82-.2.04,0,.08-.02.12-.02.66-.14,1.54-.27,2.19-.21l1.19-15.06-.83-.65c-2.95-2.28-7.1-6.58-7.1-8.95,0-3.51,2.17-6.02,3.67-6.42l1.44-.38v-5.81s-1.17-.51-1.17-.51c-.06-.03-6.44-2.85-6.44-7.4,0-4.93,3.64-7.3,5.03-7.37l1.84-.09v-11.19l-.53-.56c-.12-.13-11.83-12.83-11.83-28.13v-1.69l-1.66-.24c-11.26-1.61-28.55-6.46-31.47-13.12h44.73v-32.06s-.64-.58-.64-.58c-.11-.1-10.45-9.66-11.58-20.81h38.44c-1.13,11.15-11.47,20.72-11.58,20.81l-.64.58v32.06h44.83c-2.92,6.66-20.21,11.51-31.47,13.12-.95.14-1.66.96-1.66,1.93,0,15.25-11.71,28-11.83,28.13-.34.36-.53.84-.53,1.33v8.57c0,1.04.81,1.89,1.84,1.95,1.39.07,5.03,2.44,5.03,7.37,0,4.55-6.38,7.37-6.44,7.4-.71.31-1.17,1.01-1.17,1.8v3.02c0,.88.59,1.66,1.44,1.88,1.5.4,3.67,2.92,3.67,6.42,0,2.37-4.15,6.66-7.1,8.95-.52.4-.8,1.04-.75,1.7l1.04,13.14c.06.76.55,1.41,1.26,1.67.71.26,1.5.08,2.03-.45.14-.14.34-.35.79-1.27h0s.49-.71,1.28-1.55c.17-.18.36-.37.55-.56.28-.27.58-.53.9-.79.31-.24.63-.47.96-.67h0s.63-.43.63-.43l55.4-36.67.18-.76c.03-.16,3.77-15.81,12.83-15.81,2.62,0,5.58,1.31,8.77,3.89l.86.69,1.03-.39c.07-.03,7.14-2.66,16.51-2.66,14.75,0,34.41,6.41,44.29,36.96,9.22,28.52,11.24,48.62,6.72,67.23-.36,1.51-.78,3.02-1.24,4.53-.19.65-.4,1.3-.62,1.95-.21.65-.44,1.3-.67,1.95-1.94,5.42-4.49,10.87-7.72,16.42-.62,1.06-1.26,2.13-1.93,3.21-.62,1-1.27,2.01-1.93,3.01-3.46,5.24-7.52,10.6-12.23,16.16-.63.75-1.28,1.5-1.93,2.25-.63.73-1.27,1.46-1.93,2.2,0,0-.02.02-.03.03v5.78s.02-.02.03-.03v7.94h7.09v-11.48h12.88v-21.68c5.27-8.12,9.15-15.97,11.82-23.82h7.71v8.23h8.8v57.63h24.26v-14.51h18.46v15.6h18.25v13.44h7.08v-11.27h23.18v13h6.01v-18.85h27.05v-12.13h32.41v26h11.16v14.08h8.16v-41.77l37.14-21.59v160.45h-29.65v5.82ZM542.64,384.98v12.14h-9.52c3.51-4.14,6.68-8.18,9.52-12.14ZM789.19,588.19h-28.05v-41.53h27.79v7.08h-21.47v9.26h12.52v7.08h-12.52v10.3h21.74v7.81Z" style="fill: #fff;"/>
  </g>
</svg>